<svg width="120" height="17" viewBox="0 0 120 17" fill="none" xmlns="http://www.w3.org/2000/svg">
<path d="M2.928 12.576H6.832V14H1.104V2.704H2.928V12.576ZM16.4523 9.168C16.4523 9.46667 16.4309 9.728 16.3883 9.952H9.60425C9.63625 10.8587 9.88692 11.5307 10.3563 11.968C10.8256 12.4053 11.4069 12.624 12.1003 12.624C12.7083 12.624 13.2203 12.4693 13.6363 12.16C14.0629 11.8507 14.3243 11.44 14.4203 10.928H16.3723C16.2549 11.5467 16.0096 12.096 15.6363 12.576C15.2629 13.056 14.7776 13.4347 14.1803 13.712C13.5829 13.9787 12.9163 14.112 12.1803 14.112C11.3269 14.112 10.5696 13.9307 9.90825 13.568C9.25758 13.2053 8.74558 12.6827 8.37225 12C7.99892 11.3173 7.81225 10.512 7.81225 9.584C7.81225 8.66667 7.99892 7.86667 8.37225 7.184C8.74558 6.50133 9.25758 5.97867 9.90825 5.616C10.5696 5.25333 11.3269 5.072 12.1803 5.072C13.0443 5.072 13.7963 5.25333 14.4363 5.616C15.0869 5.968 15.5829 6.45867 15.9243 7.088C16.2763 7.70667 16.4523 8.4 16.4523 9.168ZM14.6123 9.12C14.6336 8.544 14.5323 8.064 14.3083 7.68C14.0949 7.28533 13.7963 6.99733 13.4123 6.816C13.0389 6.624 12.6283 6.528 12.1803 6.528C11.4656 6.528 10.8683 6.74667 10.3883 7.184C9.90825 7.62133 9.64692 8.26667 9.60425 9.12H14.6123ZM21.7494 5.072C22.5494 5.072 23.232 5.26933 23.7974 5.664C24.3627 6.05867 24.7627 6.58133 24.9974 7.232V5.184H26.8214V14H24.9974V11.952C24.7627 12.6027 24.3627 13.1253 23.7974 13.52C23.232 13.9147 22.5494 14.112 21.7494 14.112C20.9814 14.112 20.2934 13.9307 19.6854 13.568C19.088 13.2053 18.6187 12.6827 18.2774 12C17.936 11.3173 17.7654 10.512 17.7654 9.584C17.7654 8.66667 17.936 7.86667 18.2774 7.184C18.6187 6.50133 19.088 5.97867 19.6854 5.616C20.2934 5.25333 20.9814 5.072 21.7494 5.072ZM22.3094 6.672C21.4987 6.672 20.848 6.93333 20.3574 7.456C19.8774 7.968 19.6374 8.67733 19.6374 9.584C19.6374 10.4907 19.8774 11.2053 20.3574 11.728C20.848 12.24 21.4987 12.496 22.3094 12.496C22.8214 12.496 23.28 12.3787 23.6854 12.144C24.0907 11.8987 24.4107 11.5573 24.6454 11.12C24.88 10.6827 24.9974 10.1707 24.9974 9.584C24.9974 9.008 24.88 8.50133 24.6454 8.064C24.4107 7.616 24.0907 7.27467 23.6854 7.04C23.28 6.79467 22.8214 6.672 22.3094 6.672ZM30.8343 6.912C31.1329 6.336 31.5596 5.88267 32.1143 5.552C32.6689 5.21067 33.3089 5.04 34.0343 5.04V7.024H33.4903C32.6903 7.024 32.0449 7.22133 31.5543 7.616C31.0743 8 30.8343 8.64 30.8343 9.536V14H29.0103V5.184H30.8343V6.912ZM40.3289 5.04C41.3529 5.04 42.1742 5.37067 42.7929 6.032C43.4115 6.69333 43.7209 7.63733 43.7209 8.864V14H41.8969V9.056C41.8969 8.26667 41.6942 7.65867 41.2889 7.232C40.8835 6.79467 40.3289 6.576 39.6249 6.576C38.8995 6.576 38.3182 6.81067 37.8809 7.28C37.4435 7.73867 37.2249 8.416 37.2249 9.312V14H35.4009V5.184H37.2249V7.12C37.4595 6.45867 37.8542 5.94667 38.4089 5.584C38.9635 5.22133 39.6035 5.04 40.3289 5.04ZM61.316 2.88V14H59.476V5.664L56.26 14H54.66L51.428 5.664V14H49.604V2.88H51.812L55.492 11.76L59.108 2.88H61.316ZM67.5423 5.072C68.3956 5.072 69.1636 5.25333 69.8463 5.616C70.5289 5.97867 71.0623 6.50133 71.4462 7.184C71.8303 7.86667 72.0223 8.66667 72.0223 9.584C72.0223 10.512 71.8303 11.3173 71.4462 12C71.0623 12.6827 70.5289 13.2053 69.8463 13.568C69.1636 13.9307 68.3956 14.112 67.5423 14.112C66.6889 14.112 65.9209 13.9307 65.2383 13.568C64.5663 13.2053 64.0329 12.6827 63.6383 12C63.2543 11.3067 63.0623 10.5013 63.0623 9.584C63.0623 8.66667 63.2543 7.86667 63.6383 7.184C64.0329 6.50133 64.5663 5.97867 65.2383 5.616C65.9209 5.25333 66.6889 5.072 67.5423 5.072ZM67.5423 6.656C67.0729 6.656 66.6409 6.76267 66.2463 6.976C65.8516 7.18933 65.5316 7.52 65.2863 7.968C65.0516 8.40533 64.9343 8.944 64.9343 9.584C64.9343 10.2347 65.0516 10.7787 65.2863 11.216C65.5316 11.6533 65.8516 11.9787 66.2463 12.192C66.6409 12.4053 67.0729 12.512 67.5423 12.512C68.0116 12.512 68.4436 12.4053 68.8383 12.192C69.2329 11.9787 69.5476 11.6533 69.7823 11.216C70.0276 10.7787 70.1503 10.2347 70.1503 9.584C70.1503 8.944 70.0276 8.40533 69.7823 7.968C69.5476 7.52 69.2329 7.18933 68.8383 6.976C68.4436 6.76267 68.0116 6.656 67.5423 6.656ZM75.5999 6.912C75.8985 6.336 76.3252 5.88267 76.8799 5.552C77.4345 5.21067 78.0745 5.04 78.7999 5.04V7.024H78.2559C77.4559 7.024 76.8105 7.22133 76.3199 7.616C75.8399 8 75.5999 8.64 75.5999 9.536V14H73.7759V5.184H75.5999V6.912ZM88.3585 9.168C88.3585 9.46667 88.3372 9.728 88.2945 9.952H81.5105C81.5425 10.8587 81.7932 11.5307 82.2625 11.968C82.7318 12.4053 83.3132 12.624 84.0065 12.624C84.6145 12.624 85.1265 12.4693 85.5425 12.16C85.9692 11.8507 86.2305 11.44 86.3265 10.928H88.2785C88.1612 11.5467 87.9158 12.096 87.5425 12.576C87.1692 13.056 86.6838 13.4347 86.0865 13.712C85.4892 13.9787 84.8225 14.112 84.0865 14.112C83.2332 14.112 82.4758 13.9307 81.8145 13.568C81.1638 13.2053 80.6518 12.6827 80.2785 12C79.9052 11.3173 79.7185 10.512 79.7185 9.584C79.7185 8.66667 79.9052 7.86667 80.2785 7.184C80.6518 6.50133 81.1638 5.97867 81.8145 5.616C82.4758 5.25333 83.2332 5.072 84.0865 5.072C84.9505 5.072 85.7025 5.25333 86.3425 5.616C86.9932 5.968 87.4892 6.45867 87.8305 7.088C88.1825 7.70667 88.3585 8.4 88.3585 9.168ZM86.5185 9.12C86.5398 8.544 86.4385 8.064 86.2145 7.68C86.0012 7.28533 85.7025 6.99733 85.3185 6.816C84.9452 6.624 84.5345 6.528 84.0865 6.528C83.3718 6.528 82.7745 6.74667 82.2945 7.184C81.8145 7.62133 81.5532 8.26667 81.5105 9.12H86.5185Z" fill="#FF6B39"/>
<path fill-rule="evenodd" clip-rule="evenodd" d="M115.634 4.19887L119.808 8.51989C120.064 8.78505 120.064 9.21495 119.808 9.48011L115.634 13.8011C115.378 14.0663 114.962 14.0663 114.706 13.8011C114.45 13.536 114.45 13.1061 114.706 12.8409L117.761 9.67898L98 9.67898V8.32102L117.761 8.32102L114.706 5.1591C114.45 4.89394 114.45 4.46403 114.706 4.19887C114.962 3.93371 115.378 3.93371 115.634 4.19887Z" fill="#FF6B39"/>
</svg>
